<svg xmlns="http://www.w3.org/2000/svg" aria-label="Mnstagram" color="#a0a0a0" fill="#a0a0a0" height="24" role="img" viewBox="0 0 24 24" width="24">
    <path d="M 12 2.982 C 14.937 2.982 15.285 2.993 16.445 3.046 C 17.142 3.054 17.833 3.183 18.487 3.425 C 18.965 3.601 19.397 3.883 19.752 4.248 C 20.117 4.603 20.399 5.035 20.575 5.513 C 20.817 6.167 20.946 6.858 20.954 7.555 C 21.007 8.715 21.018 9.063 21.018 12 C 21.018 14.937 21.007 15.285 20.954 16.445 C 20.946 17.142 20.817 17.833 20.575 18.487 C 20.205 19.447 19.447 20.205 18.487 20.575 C 17.833 20.817 17.142 20.946 16.445 20.954 C 15.285 21.007 14.937 21.018 12 21.018 C 9.063 21.018 8.715 21.007 7.555 20.954 C 6.857 20.946 6.166 20.817 5.512 20.575 C 5.034 20.399 4.603 20.117 4.248 19.752 C 3.883 19.397 3.601 18.965 3.425 18.487 C 3.183 17.833 3.054 17.142 3.046 16.445 C 2.993 15.285 2.982 14.937 2.982 12 C 2.982 9.063 2.993 8.715 3.046 7.555 C 3.054 6.858 3.183 6.167 3.425 5.513 C 3.601 5.035 3.883 4.603 4.248 4.248 C 4.603 3.883 5.035 3.601 5.513 3.425 C 6.167 3.183 6.858 3.054 7.555 3.046 C 8.715 2.993 9.063 2.982 12 2.982 M 12 1 C 9.013 1 8.638 1.013 7.465 1.066 C 6.553 1.084 5.65 1.257 4.795 1.577 C 4.061 1.853 3.396 2.287 2.846 2.847 C 2.286 3.396 1.853 4.061 1.577 4.795 C 1.257 5.65 1.085 6.553 1.067 7.465 C 1.012 8.638 1 9.013 1 12 C 1 14.987 1.013 15.362 1.066 16.535 C 1.084 17.447 1.257 18.35 1.577 19.205 C 1.853 19.939 2.287 20.604 2.847 21.154 C 3.396 21.714 4.061 22.147 4.795 22.423 C 5.65 22.743 6.553 22.915 7.465 22.933 C 8.638 22.988 9.013 23 12 23 C 14.987 23 15.362 22.987 16.535 22.934 C 17.447 22.916 18.35 22.743 19.205 22.423 C 20.683 21.852 21.852 20.683 22.423 19.205 C 22.743 18.35 22.915 17.447 22.933 16.535 C 22.988 15.362 23 14.987 23 12 C 23 9.013 22.987 8.638 22.934 7.465 C 22.916 6.553 22.743 5.65 22.423 4.795 C 22.147 4.061 21.713 3.396 21.153 2.846 C 20.604 2.286 19.939 1.853 19.205 1.577 C 18.35 1.257 17.447 1.085 16.535 1.067 C 15.362 1.012 14.987 1 12 1 Z M 12 6.351 C 7.651 6.351 4.934 11.059 7.108 14.825 C 9.282 18.591 14.718 18.591 16.892 14.825 C 17.388 13.966 17.649 12.992 17.649 12 C 17.649 8.88 15.12 6.351 12 6.351 Z M 12 15.667 C 9.177 15.667 7.413 12.611 8.824 10.167 C 10.236 7.722 13.764 7.722 15.176 10.167 C 15.498 10.724 15.667 11.356 15.667 12 C 15.667 14.025 14.025 15.667 12 15.667 Z"></path>
</svg>